<svg xmlns="http://www.w3.org/2000/svg" version="1.0" width="60.000000pt" height="60.000000pt" viewBox="0 0 60.000000 60.000000" preserveAspectRatio="xMidYMid meet">

<g transform="translate(0.000000,60.000000) scale(0.100000,-0.100000)" fill="#ffffff" stroke="none">
<path d="M156 585 c-15 -11 -23 -12 -33 -3 -17 13 -31 2 -16 -13 8 -8 2 -25 -19 -60 -36 -58 -49 -161 -28 -225 29 -88 110 -166 187 -180 34 -6 57 -34 35 -42 -7 -2 -12 -12 -12 -23 0 -16 -7 -19 -45 -19 -25 0 -45 -4 -45 -10 0 -6 53 -10 140 -10 87 0 140 4 140 10 0 6 -20 10 -45 10 -38 0 -45 3 -45 19 0 11 -5 21 -12 23 -19 7 0 38 23 38 12 0 47 14 77 31 45 25 56 28 70 17 13 -11 15 -10 9 11 -3 13 -1 33 4 43 14 25 1 38 -15 16 -9 -12 -20 -15 -37 -11 -22 6 -23 5 -9 -11 12 -16 11 -20 -10 -37 -39 -30 -126 -52 -178 -45 -57 8 -138 52 -168 91 -57 76 -71 182 -33 264 28 63 38 74 56 60 18 -16 29 -3 14 15 -10 12 -8 17 8 26 12 6 21 15 21 20 0 14 -12 12 -34 -5z m174 -510 c0 -8 -4 -15 -10 -15 -5 0 -10 7 -10 15 0 8 5 15 10 15 6 0 10 -7 10 -15z" fill="#ffffff"/>
<path d="M253 569 c-29 -8 -31 -12 -26 -42 4 -26 -1 -40 -21 -64 -14 -17 -26 -38 -26 -47 0 -9 -16 -22 -35 -30 -27 -12 -35 -21 -35 -40 0 -24 2 -25 27 -15 23 8 30 6 49 -14 16 -18 19 -28 12 -35 -8 -8 -3 -14 18 -22 44 -17 74 -50 74 -82 0 -22 5 -28 21 -28 44 0 108 23 143 52 56 46 97 138 62 138 -8 0 -21 3 -30 6 -12 5 -16 0 -16 -18 0 -13 -6 -32 -13 -42 -15 -20 -88 -39 -101 -26 -5 5 3 12 20 15 16 4 37 9 47 12 10 3 21 21 28 49 13 51 22 60 39 39 21 -25 40 -18 40 15 0 39 -30 97 -68 133 l-29 28 -8 -28 c-4 -15 -7 -42 -6 -58 1 -19 -7 -43 -23 -65 -14 -19 -31 -47 -37 -62 -12 -32 -34 -39 -24 -9 4 13 -4 34 -25 62 -36 51 -38 82 -5 114 26 27 46 31 75 15 20 -11 34 8 24 34 -9 25 -90 33 -151 15z m47 -269 c0 -5 -14 -10 -31 -10 -17 0 -28 4 -24 10 3 6 17 10 31 10 13 0 24 -4 24 -10z" fill="#ffffff"/>
<path d="M167 513 c-26 -29 -62 -101 -53 -110 9 -10 46 9 46 24 0 8 11 28 25 45 24 28 34 68 17 68 -5 0 -20 -12 -35 -27z" fill="#ffffff"/>
<path d="M315 490 c-20 -23 -15 -56 15 -91 l20 -24 25 28 c30 33 32 67 7 90 -24 22 -45 21 -67 -3z m63 -32 c3 -24 0 -28 -23 -28 -27 0 -41 20 -31 46 10 27 51 13 54 -18z" fill="#ffffff"/>
<path d="M340 460 c0 -5 5 -10 10 -10 6 0 10 5 10 10 0 6 -4 10 -10 10 -5 0 -10 -4 -10 -10z" fill="#ffffff"/>
<path d="M134 306 c-18 -14 -18 -16 11 -58 27 -37 94 -87 118 -88 4 0 7 9 7 19 0 21 -38 56 -71 66 -12 4 -22 19 -26 36 -7 37 -15 42 -39 25z" fill="#ffffff"/>
</g>
</svg>